<?xml version="1.0" encoding="UTF-8" standalone="no"?>
<svg
   width="512"
   height="512"
   viewBox="0 0 512 512"
   fill="none"
   class="h-full w-full"
   version="1.1"
   id="svg22"
   sodipodi:docname="gg_scan.svg"
   inkscape:version="1.1.2 (0a00cf5339, 2022-02-04)"
   xmlns:inkscape="http://www.inkscape.org/namespaces/inkscape"
   xmlns:sodipodi="http://sodipodi.sourceforge.net/DTD/sodipodi-0.dtd"
   xmlns:xlink="http://www.w3.org/1999/xlink"
   xmlns="http://www.w3.org/2000/svg"
   xmlns:svg="http://www.w3.org/2000/svg">
  <sodipodi:namedview
     id="namedview24"
     pagecolor="#505050"
     bordercolor="#ffffff"
     borderopacity="1"
     inkscape:pageshadow="0"
     inkscape:pageopacity="0"
     inkscape:pagecheckerboard="1"
     showgrid="false"
     inkscape:zoom="1.6328125"
     inkscape:cx="256"
     inkscape:cy="256"
     inkscape:window-width="1920"
     inkscape:window-height="1011"
     inkscape:window-x="0"
     inkscape:window-y="0"
     inkscape:window-maximized="1"
     inkscape:current-layer="svg22" />
  <rect
     id="r4"
     width="461"
     height="461"
     x="25.5"
     y="25.5"
     rx="256"
     fill="#eab308"
     stroke="#000000"
     stroke-width="51"
     stroke-opacity="1"
     paint-order="stroke"
     style="fill:#ffd700;fill-opacity:1" />
  <!---->
  <!---->
  <clipPath
     id="clip">
    <use
       xlink:href="#r4"
       id="use3" />
  </clipPath>
  <defs
     id="defs16">
    <linearGradient
       id="linearGradient"
       gradientUnits="userSpaceOnUse"
       gradientTransform="rotate(45)"
       style="transform-origin: center center;">
      <stop
         stop-color="#8e2de2"
         id="stop6" />
      <stop
         offset="1"
         stop-color="#4a00e0"
         id="stop8" />
    </linearGradient>
    <radialGradient
       id="glare"
       cx="0"
       cy="0"
       r="1"
       gradientUnits="userSpaceOnUse"
       gradientTransform="translate(256) rotate(90) scale(512)">
      <stop
         stop-color="white"
         id="stop11" />
      <stop
         offset="1"
         stop-color="white"
         stop-opacity="0"
         id="stop13" />
    </radialGradient>
  </defs>
  <svg
     data-v-e660a7a7=""
     aria-hidden="true"
     role="img"
     class="icon"
     x="97.5"
     y="97.5"
     width="317px"
     height="317px"
     viewBox="0 0 24 24"
     style="color: rgb(0, 0, 0);"
     version="1.1"
     id="svg20">
    <path
       fill="currentColor"
       d="M11 3h2v18h-2V3ZM5 8a1 1 0 0 1 1-1h3V5H6a3 3 0 0 0-3 3v8a3 3 0 0 0 3 3h3v-2H6a1 1 0 0 1-1-1V8Zm14 0a1 1 0 0 0-1-1h-3V5h3a3 3 0 0 1 3 3v8a3 3 0 0 1-3 3h-3v-2h3a1 1 0 0 0 1-1V8Z"
       id="path18" />
  </svg>
</svg>
