<?xml version="1.0" encoding="UTF-8" standalone="no"?>
<!-- Created with Inkscape (http://www.inkscape.org/) -->

<svg
   width="135.46667mm"
   height="135.46667mm"
   viewBox="0 0 135.46667 135.46667"
   version="1.1"
   id="svg26474"
   inkscape:version="1.1.2 (0a00cf5339, 2022-02-04)"
   sodipodi:docname="logo_v4_square_01.svg"
   xmlns:inkscape="http://www.inkscape.org/namespaces/inkscape"
   xmlns:sodipodi="http://sodipodi.sourceforge.net/DTD/sodipodi-0.dtd"
   xmlns="http://www.w3.org/2000/svg"
   xmlns:svg="http://www.w3.org/2000/svg">
  <sodipodi:namedview
     id="namedview26476"
     pagecolor="#505050"
     bordercolor="#ffffff"
     borderopacity="1"
     inkscape:pageshadow="0"
     inkscape:pageopacity="0"
     inkscape:pagecheckerboard="1"
     inkscape:document-units="px"
     showgrid="false"
     fit-margin-top="0"
     fit-margin-left="0"
     fit-margin-right="0"
     fit-margin-bottom="0"
     inkscape:zoom="0.74475309"
     inkscape:cx="234.97721"
     inkscape:cy="326.28263"
     inkscape:window-width="1920"
     inkscape:window-height="1011"
     inkscape:window-x="0"
     inkscape:window-y="0"
     inkscape:window-maximized="1"
     inkscape:current-layer="g24894" />
  <defs
     id="defs26471">
    <rect
       x="267.95645"
       y="508.69687"
       width="233.3429"
       height="96.870155"
       id="rect15914" />
  </defs>
  <g
     inkscape:label="Layer 1"
     inkscape:groupmode="layer"
     id="layer1"
     transform="translate(-42.632361,-60.6664)">
    <g
       id="g24894"
       transform="translate(12.341397,-103.68935)"
       inkscape:export-filename="/media/mint/DiskDataStorage_HDD/block-chat-res/logo_v4_512_01.png"
       inkscape:export-xdpi="96"
       inkscape:export-ydpi="96">
      <g
         id="g1193-7-8"
         transform="matrix(1.0189737,0.47515524,0,1.0189737,55.592667,217.35852)"
         style="stroke:none;stroke-width:1.33584;stroke-miterlimit:4;stroke-dasharray:none;stroke-opacity:1">
        <path
           fill="#0acaa6"
           d="m 18,2.5 c -8.82,0 -16,6.28 -16,14 0,7.72 7.18,14 16,14 a 18,18 0 0 0 4.88,-0.68 l 5.53,3.52 a 1,1 0 0 0 1.54,-0.84 v -6.73 a 13,13 0 0 0 4,-9.27 C 34,8.78 26.82,2.5 18,2.5 Z m 10.29,22.11 a 1,1 0 0 0 -0.32,0.73 v 5.34 L 23.59,27.89 A 1,1 0 0 0 22.76,27.78 16,16 0 0 1 18,28.5 c -7.72,0 -14,-5.38 -14,-12 0,-6.62 6.28,-12 14,-12 7.72,0 14,5.38 14,12 a 11.08,11.08 0 0 1 -3.71,8.11 z"
           class="clr-i-outline clr-i-outline-path-1"
           id="path1172-4-5"
           style="stroke:none;stroke-width:1.33584;stroke-miterlimit:4;stroke-dasharray:none;stroke-opacity:1" />
        <path
           fill="#0acaa6"
           d="M 25,15.5 H 11 a 1,1 0 0 0 0,2 h 14 a 1,1 0 0 0 0,-2 z"
           class="clr-i-outline clr-i-outline-path-2"
           id="path1174-1-6"
           style="stroke:none;stroke-width:1.33584;stroke-miterlimit:4;stroke-dasharray:none;stroke-opacity:1" />
        <path
           fill="#0acaa6"
           d="m 21.75,20.5 h -7.5 a 1,1 0 0 0 0,2 h 7.5 a 1,1 0 0 0 0,-2 z"
           class="clr-i-outline clr-i-outline-path-3"
           id="path1176-8-1"
           style="stroke:none;stroke-width:1.33584;stroke-miterlimit:4;stroke-dasharray:none;stroke-opacity:1" />
        <path
           fill="#0acaa6"
           d="m 11.28,12.5 h 13.44 a 1,1 0 0 0 0,-2 H 11.28 a 1,1 0 0 0 0,2 z"
           class="clr-i-outline clr-i-outline-path-4"
           id="path1178-5-1"
           style="stroke:none;stroke-width:1.33584;stroke-miterlimit:4;stroke-dasharray:none;stroke-opacity:1" />
        <path
           fill="none"
           d="M 0,0 H 36 V 36 H 0 Z"
           id="path1180-9-5"
           style="stroke:none;stroke-width:1.33584;stroke-miterlimit:4;stroke-dasharray:none;stroke-opacity:1" />
      </g>
      <g
         id="g1193-7-8-1"
         transform="matrix(-1.0189737,0.47515524,0,1.0189737,140.52821,217.35852)"
         style="stroke:none;stroke-width:1.33584;stroke-miterlimit:4;stroke-dasharray:none;stroke-opacity:1">
        <path
           fill="#0acaa6"
           d="m 18,2.5 c -8.82,0 -16,6.28 -16,14 0,7.72 7.18,14 16,14 a 18,18 0 0 0 4.88,-0.68 l 5.53,3.52 a 1,1 0 0 0 1.54,-0.84 v -6.73 a 13,13 0 0 0 4,-9.27 C 34,8.78 26.82,2.5 18,2.5 Z m 10.29,22.11 a 1,1 0 0 0 -0.32,0.73 v 5.34 L 23.59,27.89 A 1,1 0 0 0 22.76,27.78 16,16 0 0 1 18,28.5 c -7.72,0 -14,-5.38 -14,-12 0,-6.62 6.28,-12 14,-12 7.72,0 14,5.38 14,12 a 11.08,11.08 0 0 1 -3.71,8.11 z"
           class="clr-i-outline clr-i-outline-path-1"
           id="path1172-4-5-8"
           style="stroke:none;stroke-width:1.33584;stroke-miterlimit:4;stroke-dasharray:none;stroke-opacity:1" />
        <path
           fill="#0acaa6"
           d="M 25,15.5 H 11 a 1,1 0 0 0 0,2 h 14 a 1,1 0 0 0 0,-2 z"
           class="clr-i-outline clr-i-outline-path-2"
           id="path1174-1-6-9"
           style="stroke:none;stroke-width:1.33584;stroke-miterlimit:4;stroke-dasharray:none;stroke-opacity:1" />
        <path
           fill="#0acaa6"
           d="m 21.75,20.5 h -7.5 a 1,1 0 0 0 0,2 h 7.5 a 1,1 0 0 0 0,-2 z"
           class="clr-i-outline clr-i-outline-path-3"
           id="path1176-8-1-6"
           style="stroke:none;stroke-width:1.33584;stroke-miterlimit:4;stroke-dasharray:none;stroke-opacity:1" />
        <path
           fill="#0acaa6"
           d="m 11.28,12.5 h 13.44 a 1,1 0 0 0 0,-2 H 11.28 a 1,1 0 0 0 0,2 z"
           class="clr-i-outline clr-i-outline-path-4"
           id="path1178-5-1-4"
           style="stroke:none;stroke-width:1.33584;stroke-miterlimit:4;stroke-dasharray:none;stroke-opacity:1" />
        <path
           fill="none"
           d="M 0,0 H 36 V 36 H 0 Z"
           id="path1180-9-5-3"
           style="stroke:none;stroke-width:1.33584;stroke-miterlimit:4;stroke-dasharray:none;stroke-opacity:1" />
      </g>
      <g
         id="g1069"
         transform="matrix(3.762963,0,0,3.762963,30.290964,164.35575)">
        <path
           fill="#0acaa6"
           d="m 31.42,9.09 -13,-6 a 1,1 0 0 0 -0.84,0 l -13,6 A 1,1 0 0 0 4,10 v 17 a 1,1 0 0 0 0.58,0.91 l 13,6 a 1,1 0 0 0 0.84,0 l 13,-6 A 1,1 0 0 0 32,27 V 10 A 1,1 0 0 0 31.42,9.09 Z M 18,5.1 28.61,10 18,14.9 7.39,10 Z m -12,6.46 11,5.08 v 14.8 L 6,26.36 Z m 13,19.88 v -14.8 l 11,-5.08 v 14.8 z"
           class="clr-i-outline clr-i-outline-path-1"
           id="path1057" />
        <path
           fill="none"
           d="M 0,0 H 36 V 36 H 0 Z"
           id="path1059" />
      </g>
      <text
         xml:space="preserve"
         transform="matrix(0.36878399,0,0,0.36878399,-18.023092,6.7488205)"
         id="text15912"
         style="font-style:normal;font-weight:normal;font-size:40px;line-height:1.25;font-family:sans-serif;white-space:pre;shape-inside:url(#rect15914);fill:#0acaa6;fill-opacity:1;stroke:none"><tspan
           x="267.95703"
           y="544.08789"
           id="tspan4449"><tspan
             style="font-weight:bold;-inkscape-font-specification:'sans-serif, Bold'"
             id="tspan4447">UBC</tspan></tspan></text>
    </g>
  </g>
</svg>
