<?xml version="1.0" encoding="UTF-8" standalone="no"?>
<svg
   aria-hidden="true"
   role="img"
   class="icon h-6 w-6"
   style=""
   width="1em"
   height="1em"
   viewBox="0 0 256 256"
   data-v-6e89ca90=""
   version="1.1"
   id="svg8"
   sodipodi:docname="telegram.svg"
   inkscape:version="1.1.2 (0a00cf5339, 2022-02-04)"
   xmlns:inkscape="http://www.inkscape.org/namespaces/inkscape"
   xmlns:sodipodi="http://sodipodi.sourceforge.net/DTD/sodipodi-0.dtd"
   xmlns="http://www.w3.org/2000/svg"
   xmlns:svg="http://www.w3.org/2000/svg">
  <defs
     id="defs12" />
  <sodipodi:namedview
     id="namedview10"
     pagecolor="#505050"
     bordercolor="#ffffff"
     borderopacity="1"
     inkscape:pageshadow="0"
     inkscape:pageopacity="0"
     inkscape:pagecheckerboard="1"
     showgrid="false"
     inkscape:zoom="256"
     inkscape:cx="-0.5"
     inkscape:cy="-0.5"
     inkscape:window-width="1920"
     inkscape:window-height="1011"
     inkscape:window-x="0"
     inkscape:window-y="0"
     inkscape:window-maximized="1"
     inkscape:current-layer="svg8" />
  <g
     fill="#eab308"
     id="g6"
     style="fill:#ffd700;fill-opacity:1">
    <path
       d="M88 200v-65.13l44.37 38.91l-30.61 31.76A8 8 0 0 1 88 200ZM230.63 32.07L28 111.38a6.23 6.23 0 0 0 1 11.92l59 11.57L232 33.22a1 1 0 0 0-1.37-1.15Z"
       opacity=".2"
       id="path2"
       style="fill:#ffd700;fill-opacity:1" />
    <path
       d="M236.88 26.19a9 9 0 0 0-9.16-1.57L25.06 103.93a14.22 14.22 0 0 0 2.43 27.21L80 141.45V200a15.92 15.92 0 0 0 10 14.83a15.91 15.91 0 0 0 17.51-3.73l25.32-26.26L173 220a15.88 15.88 0 0 0 10.51 4a16.3 16.3 0 0 0 5-.79a15.85 15.85 0 0 0 10.67-11.63L239.77 35a9 9 0 0 0-2.89-8.81Zm-61.14 36l-89.59 64.16l-49.61-9.73ZM96 200v-47.48l24.79 21.74Zm87.53 8l-82.68-72.5l119-85.29Z"
       id="path4"
       style="fill:#ffd700;fill-opacity:1" />
  </g>
</svg>
